# Blender 5.0.1
# www.blender.org
mtllib player.mtl
o Cube
v 0.085248 2.085050 -0.091656
v 0.043958 1.857931 -0.039591
v 0.070532 2.086485 0.037428
v 0.034499 1.819079 0.059574
v 0.000000 1.965479 0.123432
v 0.000000 1.960860 -0.124372
v 0.076427 1.973093 0.070462
v 0.091163 1.962736 -0.060461
v 0.000000 1.858901 -0.077435
v 0.000000 2.116253 0.074927
v 0.000000 1.809158 0.097031
v 0.000000 2.102579 -0.103374
v 0.000000 2.029617 0.115908
v 0.000000 2.044560 -0.132722
v 0.079602 2.016401 0.071504
v 0.092451 1.977916 -0.064961
v 0.079885 1.917121 -0.035964
v 0.068055 1.930673 0.072730
v 0.000000 1.899291 -0.076236
v 0.000000 1.905021 0.112073
v 0.093677 1.957061 -0.018692
v 0.085405 2.096866 -0.012560
v 0.046265 1.850955 0.002530
v 0.000000 1.838273 0.029161
v 0.000000 2.139266 -0.010352
v 0.101001 1.975922 -0.025648
v 0.083558 1.917292 -0.012177
v 0.103686 1.714493 -0.040124
v 0.099028 1.726553 -0.098798
v 0.000000 1.727990 -0.154875
v 0.000000 1.697425 0.003078
v 0.000000 1.791971 -0.117027
v 0.052245 1.784729 -0.016459
v 0.051243 1.794530 -0.066147
v 0.000000 1.766262 0.015825
v 0.044673 1.964262 -0.112669
v 0.010126 1.964916 0.112956
v 0.018057 1.810928 0.085043
v 0.050388 2.100014 -0.104310
v 0.026976 1.859432 -0.059582
v 0.042866 2.104697 0.062722
v 0.038107 2.021001 0.103727
v 0.043749 2.038623 -0.124922
v 0.023117 1.906385 0.102024
v 0.030924 1.899711 -0.066613
v 0.044074 2.127224 -0.011706
v 0.023547 1.843609 0.020396
v 0.060455 1.728778 -0.128420
v 0.053269 1.704587 -0.011524
v 0.031478 1.794911 -0.092531
v 0.026673 1.774418 0.005645
v 0.006506 1.918248 0.143550
v 0.000000 1.918449 0.147290
v 0.000000 1.905786 0.140933
v 0.006110 1.906273 0.137346
v 0.087622 2.027068 -0.102794
v 0.085344 1.965373 -0.083454
v 0.063672 1.903596 -0.050854
v 0.106258 2.021497 -0.004578
v 0.082203 1.921417 0.017336
v 0.098729 1.961058 0.005485
v 0.105912 1.959347 -0.062276
v 0.108445 1.952439 -0.022076
v 0.104578 1.978844 -0.069552
v 0.090304 1.914035 -0.039348
v 0.113128 1.976850 -0.030238
v 0.093977 1.914205 -0.015562
v -0.085248 2.085050 -0.091656
v -0.043958 1.857931 -0.039591
v -0.070532 2.086485 0.037428
v -0.034499 1.819079 0.059574
v -0.076427 1.973093 0.070462
v -0.091163 1.962736 -0.060461
v -0.079602 2.016401 0.071504
v -0.092451 1.977916 -0.064961
v -0.079885 1.917121 -0.035964
v -0.068055 1.930673 0.072730
v -0.093677 1.957061 -0.018692
v -0.085405 2.096866 -0.012560
v -0.046265 1.850955 0.002530
v -0.101001 1.975922 -0.025648
v -0.083558 1.917292 -0.012177
v -0.103686 1.714493 -0.040124
v -0.099028 1.726553 -0.098798
v -0.052245 1.784729 -0.016459
v -0.051243 1.794530 -0.066147
v -0.044673 1.964262 -0.112669
v -0.010126 1.964916 0.112956
v -0.018057 1.810928 0.085043
v -0.050388 2.100014 -0.104310
v -0.026976 1.859432 -0.059582
v -0.042866 2.104697 0.062722
v -0.038107 2.021001 0.103727
v -0.043749 2.038623 -0.124922
v -0.023117 1.906385 0.102024
v -0.030924 1.899711 -0.066613
v -0.044074 2.127224 -0.011706
v -0.023547 1.843609 0.020396
v -0.060455 1.728778 -0.128420
v -0.053269 1.704587 -0.011524
v -0.031478 1.794911 -0.092531
v -0.026673 1.774418 0.005645
v -0.006506 1.918248 0.143550
v -0.006110 1.906273 0.137346
v -0.087622 2.027068 -0.102794
v -0.085344 1.965373 -0.083454
v -0.063672 1.903596 -0.050854
v -0.106258 2.021497 -0.004578
v -0.082203 1.921417 0.017336
v -0.098729 1.961058 0.005485
v -0.105912 1.959347 -0.062276
v -0.108445 1.952439 -0.022076
v -0.104578 1.978844 -0.069552
v -0.090304 1.914035 -0.039348
v -0.113128 1.976850 -0.030238
v -0.093977 1.914205 -0.015562
vn 0.7612 0.4674 -0.4495
vn 0.9155 -0.1112 -0.3866
vn 0.7635 0.4876 0.4234
vn 0.5050 -0.8628 0.0253
vn -0.0000 0.2697 0.9630
vn -0.0000 -0.3804 -0.9248
vn 0.7953 -0.1196 0.5943
vn 0.3961 -0.4406 -0.8056
vn -0.0000 0.2342 -0.9722
vn -0.0000 0.7563 0.6542
vn -0.0000 -0.7755 0.6314
vn -0.0000 0.7375 -0.6753
vn -0.0000 0.2511 0.9679
vn -0.0000 0.1497 -0.9887
vn 0.8040 0.1048 0.5853
vn 0.8331 0.1362 -0.5360
vn 0.3259 -0.8918 -0.3138
vn 0.8085 -0.2085 0.5503
vn -0.0000 -0.3921 -0.9199
vn -0.0000 -0.8433 0.5374
vn 0.8245 -0.0779 0.5605
vn 0.8207 0.5669 0.0718
vn 0.9284 -0.3434 0.1416
vn -0.0000 -0.9460 0.3243
vn -0.0000 0.9998 -0.0201
vn 0.9148 0.2665 0.3035
vn 0.5513 -0.7767 0.3046
vn 0.8732 -0.4183 0.2501
vn 0.8553 -0.2598 -0.4483
vn -0.0000 -0.3325 -0.9431
vn -0.0000 -0.7865 0.6176
vn -0.0000 0.5411 -0.8410
vn 0.8549 0.1539 0.4955
vn 0.8390 0.4515 -0.3037
vn -0.0000 -0.1649 0.9863
vn 0.3643 -0.3725 -0.8536
vn 0.6005 0.0626 0.7972
vn 0.4360 -0.8395 0.3244
vn 0.3415 0.6766 -0.6524
vn 0.6092 0.0863 -0.7883
vn 0.5008 0.6517 0.5697
vn 0.5240 0.1516 0.8382
vn 0.3143 0.0794 -0.9460
vn 0.6810 -0.2209 0.6982
vn 0.4404 -0.4037 -0.8019
vn 0.3986 0.9171 0.0061
vn 0.3036 -0.9178 0.2560
vn 0.5302 -0.3352 -0.7788
vn 0.4154 -0.7274 0.5461
vn 0.5537 0.4877 -0.6750
vn 0.4744 -0.1051 0.8740
vn 0.7514 0.0288 0.6592
vn -0.0000 -0.0096 1.0000
vn -0.0000 -0.7814 0.6240
vn 0.6110 -0.6671 0.4263
vn 0.7894 0.0160 -0.6137
vn 0.7456 -0.3383 -0.5742
vn 0.7182 -0.5230 -0.4590
vn 0.9920 0.0770 0.1000
vn 0.9254 -0.3631 0.1083
vn 0.9675 -0.2039 0.1495
vn 0.5566 -0.3972 -0.7297
vn 0.8315 -0.0841 0.5491
vn 0.3973 0.4610 -0.7935
vn 0.2753 -0.8156 -0.5089
vn 0.7294 0.6028 0.3235
vn 0.4660 -0.7178 0.5173
vn -0.7612 0.4674 -0.4495
vn -0.9155 -0.1112 -0.3866
vn -0.7635 0.4876 0.4234
vn -0.5050 -0.8628 0.0253
vn -0.7953 -0.1196 0.5943
vn -0.3961 -0.4406 -0.8056
vn -0.8040 0.1048 0.5853
vn -0.8331 0.1362 -0.5360
vn -0.3259 -0.8918 -0.3138
vn -0.8085 -0.2085 0.5503
vn -0.8245 -0.0779 0.5605
vn -0.8207 0.5669 0.0718
vn -0.9284 -0.3434 0.1416
vn -0.9148 0.2665 0.3035
vn -0.5513 -0.7767 0.3046
vn -0.8732 -0.4183 0.2501
vn -0.8553 -0.2598 -0.4483
vn -0.8549 0.1539 0.4955
vn -0.8390 0.4515 -0.3037
vn -0.3643 -0.3725 -0.8536
vn -0.6005 0.0626 0.7972
vn -0.4360 -0.8395 0.3244
vn -0.3415 0.6766 -0.6524
vn -0.6092 0.0863 -0.7883
vn -0.5008 0.6517 0.5697
vn -0.5240 0.1516 0.8382
vn -0.3143 0.0794 -0.9460
vn -0.6810 -0.2209 0.6982
vn -0.4404 -0.4037 -0.8019
vn -0.3986 0.9171 0.0061
vn -0.3036 -0.9178 0.2560
vn -0.5302 -0.3352 -0.7788
vn -0.4154 -0.7274 0.5461
vn -0.5537 0.4877 -0.6750
vn -0.4744 -0.1051 0.8740
vn -0.7514 0.0288 0.6592
vn -0.6110 -0.6671 0.4263
vn -0.7894 0.0160 -0.6137
vn -0.7456 -0.3383 -0.5742
vn -0.7182 -0.5230 -0.4590
vn -0.9920 0.0770 0.1000
vn -0.9254 -0.3631 0.1083
vn -0.9675 -0.2039 0.1495
vn -0.5566 -0.3972 -0.7297
vn -0.8315 -0.0841 0.5491
vn -0.3973 0.4610 -0.7935
vn -0.2753 -0.8156 -0.5089
vn -0.7294 0.6028 0.3235
vn -0.4660 -0.7178 0.5173
vt 0.668996 0.879392
vt 0.666998 0.850499
vt 0.685511 0.855268
vt 0.686904 0.879889
vt 0.265029 0.923029
vt 0.256954 0.900080
vt 0.272334 0.899006
vt 0.270370 0.923465
vt 0.745678 0.837281
vt 0.742156 0.820927
vt 0.765945 0.819048
vt 0.766185 0.835687
vt 0.689351 0.646109
vt 0.696517 0.637253
vt 0.696517 0.661476
vt 0.692303 0.672725
vt 0.739001 0.797453
vt 0.735378 0.770542
vt 0.753681 0.776317
vt 0.766727 0.802517
vt 0.671017 0.828416
vt 0.685297 0.834083
vt 0.668668 0.907041
vt 0.682331 0.905819
vt 0.469155 0.795693
vt 0.469155 0.774449
vt 0.483544 0.790390
vt 0.481946 0.795209
vt 0.252145 0.867621
vt 0.269267 0.865690
vt 0.854165 0.945372
vt 0.871551 0.946191
vt 0.869824 0.978966
vt 0.852995 0.973987
vt 0.249141 0.980902
vt 0.255614 0.944475
vt 0.265093 0.946354
vt 0.257276 0.982674
vt 0.668131 0.922818
vt 0.676360 0.924261
vt 0.737949 0.866317
vt 0.758975 0.880053
vt 0.721814 0.863244
vt 0.718699 0.844390
vt 0.335483 0.324694
vt 0.336705 0.315669
vt 0.340798 0.315801
vt 0.339576 0.324825
vt 0.851019 0.909749
vt 0.870338 0.910452
vt 0.700692 0.795320
vt 0.705141 0.773835
vt 0.711688 0.886169
vt 0.730632 0.890516
vt 0.723663 0.912706
vt 0.701131 0.907653
vt 0.337772 0.395620
vt 0.337334 0.411548
vt 0.333048 0.411330
vt 0.331922 0.395461
vt 0.746452 0.380874
vt 0.761315 0.392224
vt 0.763094 0.415238
vt 0.743671 0.426739
vt 0.960190 0.411718
vt 0.971442 0.413055
vt 0.973580 0.439709
vt 0.952726 0.440222
vt 0.683601 0.733715
vt 0.696241 0.733715
vt 0.699142 0.758507
vt 0.681167 0.753427
vt 0.713394 0.863673
vt 0.700692 0.887136
vt 0.959431 0.384688
vt 0.969204 0.385173
vt 0.948169 0.383832
vt 0.947023 0.410076
vt 0.656397 0.922507
vt 0.667114 0.945053
vt 0.653089 0.945337
vt 0.674943 0.967154
vt 0.649927 0.967160
vt 0.930131 0.440222
vt 0.723153 0.370930
vt 0.723153 0.432758
vt 0.836902 0.914377
vt 0.836902 0.944769
vt 0.656242 0.907297
vt 0.239374 0.976669
vt 0.236510 0.932507
vt 0.841712 0.964082
vt 0.236936 0.899260
vt 0.237298 0.872799
vt 0.235529 0.915895
vt 0.651273 0.880959
vt 0.649927 0.848757
vt 0.652323 0.828653
vt 0.681167 0.651518
vt 0.686434 0.678663
vt 0.267819 0.945770
vt 0.269467 0.941250
vt 0.272334 0.941565
vt 0.270490 0.946323
vt 0.331922 0.430841
vt 0.338223 0.423479
vt 0.338223 0.438323
vt 0.336715 0.440594
vt 0.715083 0.814017
vt 0.716657 0.819897
vt 0.707626 0.819006
vt 0.725218 0.838287
vt 0.730470 0.814700
vt 0.331922 0.334988
vt 0.331922 0.309275
vt 0.732674 0.822459
vt 0.734465 0.838295
vt 0.681168 0.698432
vt 0.681168 0.690594
vt 0.695352 0.696597
vt 0.694568 0.706618
vt 0.681964 0.718554
vt 0.690627 0.721784
vt 0.331922 0.373253
vt 0.332338 0.354127
vt 0.337721 0.354632
vt 0.335539 0.373751
vt 0.336481 0.387610
vt 0.331922 0.385682
vt 0.336771 0.453257
vt 0.336771 0.468737
vt 0.331922 0.468004
vt 0.331922 0.452525
vt 0.331922 0.348082
vt 0.335934 0.346919
s 1
usemtl character
f 36/1/36 43/2/43 56/3/56 57/4/57
f 37/5/37 42/6/42 13/7/13 5/8/5
f 60/9/60 61/10/61 7/11/7 18/12/18
f 47/13/47 23/14/23 4/15/4 38/16/38
f 59/17/59 22/18/22 3/19/3 15/20/15
f 43/2/43 39/21/39 1/22/1 56/3/56
f 45/23/45 36/1/36 57/4/57 58/24/58
f 44/25/44 37/26/37 52/27/52 55/28/55
f 42/6/42 41/29/41 10/30/10 13/7/13
f 46/31/46 25/32/25 10/33/10 41/34/41
f 61/10/61 59/17/59 15/20/15 7/11/7
f 38/35/38 44/36/44 20/37/20 11/38/11
f 40/39/40 45/23/45 58/24/58 2/40/2
f 23/41/23 60/9/60 18/12/18 4/42/4
f 2/43/2 58/44/58 60/9/60 23/41/23
f 27/45/27 17/46/17 65/47/65 67/48/67
f 39/49/39 12/50/12 25/32/25 46/31/46
f 56/51/56 1/52/1 22/18/22 59/17/59
f 34/53/34 33/54/33 28/55/28 29/56/29
f 21/57/21 27/58/27 67/59/67 63/60/63
f 48/61/48 29/62/29 28/63/28 49/64/49
f 51/65/51 35/66/35 31/67/31 49/68/49
f 50/69/50 34/70/34 29/71/29 48/72/48
f 40/73/40 2/43/2 34/53/34 50/74/50
f 47/75/47 24/76/24 35/66/35 51/65/51
f 2/43/2 23/41/23 33/54/33 34/53/34
f 23/77/23 47/75/47 51/65/51 33/78/33
f 9/79/9 40/39/40 50/80/50 32/81/32
f 32/81/32 50/80/50 48/82/48 30/83/30
f 33/78/33 51/65/51 49/68/49 28/84/28
f 30/85/30 48/61/48 49/64/49 31/86/31
f 1/87/1 39/49/39 46/31/46 22/88/22
f 9/79/9 19/89/19 45/23/45 40/39/40
f 4/90/4 18/91/18 44/36/44 38/35/38
f 22/88/22 46/31/46 41/34/41 3/92/3
f 15/93/15 3/94/3 41/29/41 42/6/42
f 18/91/18 7/95/7 37/5/37 44/36/44
f 19/89/19 6/96/6 36/1/36 45/23/45
f 14/97/14 12/98/12 39/21/39 43/2/43
f 24/99/24 47/13/47 38/16/38 11/100/11
f 7/95/7 15/93/15 42/6/42 37/5/37
f 6/96/6 14/97/14 43/2/43 36/1/36
f 55/101/55 52/102/52 53/103/53 54/104/54
f 37/5/37 5/8/5 53/103/53 52/102/52
f 20/105/20 44/106/44 55/107/55 54/108/54
f 16/109/16 8/110/8 57/111/57 56/51/56
f 8/110/8 17/112/17 58/44/58 57/111/57
f 26/113/26 16/109/16 56/51/56 59/17/59
f 17/46/17 27/45/27 60/114/60 58/115/58
f 21/116/21 26/113/26 59/17/59 61/10/61
f 27/117/27 21/116/21 61/10/61 60/9/60
f 62/118/62 64/119/64 66/120/66 63/121/63
f 65/122/65 62/118/62 63/121/63 67/123/67
f 17/124/17 8/125/8 62/126/62 65/127/65
f 26/128/26 21/57/21 63/60/63 66/129/66
f 16/130/16 26/131/26 66/132/66 64/133/64
f 8/125/8 16/134/16 64/135/64 62/126/62
f 87/1/87 106/4/106 105/3/105 94/2/94
f 88/5/88 5/8/5 13/7/13 93/6/93
f 109/9/109 77/12/77 72/11/72 110/10/110
f 98/13/98 89/16/89 71/15/71 80/14/80
f 108/17/108 74/20/74 70/19/70 79/18/79
f 94/2/94 105/3/105 68/22/68 90/21/90
f 96/23/96 107/24/107 106/4/106 87/1/87
f 95/25/95 104/28/104 103/27/103 88/26/88
f 93/6/93 13/7/13 10/30/10 92/29/92
f 97/31/97 92/34/92 10/33/10 25/32/25
f 110/10/110 72/11/72 74/20/74 108/17/108
f 89/35/89 11/38/11 20/37/20 95/36/95
f 91/39/91 69/40/69 107/24/107 96/23/96
f 80/41/80 71/42/71 77/12/77 109/9/109
f 69/43/69 80/41/80 109/9/109 107/44/107
f 82/45/82 116/48/116 114/47/114 76/46/76
f 90/49/90 97/31/97 25/32/25 12/50/12
f 105/51/105 108/17/108 79/18/79 68/52/68
f 86/53/86 84/56/84 83/55/83 85/54/85
f 78/57/78 112/60/112 116/59/116 82/58/82
f 99/61/99 100/64/100 83/63/83 84/62/84
f 102/65/102 100/68/100 31/67/31 35/66/35
f 101/69/101 99/72/99 84/71/84 86/70/86
f 91/73/91 101/74/101 86/53/86 69/43/69
f 98/75/98 102/65/102 35/66/35 24/76/24
f 69/43/69 86/53/86 85/54/85 80/41/80
f 80/77/80 85/78/85 102/65/102 98/75/98
f 9/79/9 32/81/32 101/80/101 91/39/91
f 32/81/32 30/83/30 99/82/99 101/80/101
f 85/78/85 83/84/83 100/68/100 102/65/102
f 30/85/30 31/86/31 100/64/100 99/61/99
f 68/87/68 79/88/79 97/31/97 90/49/90
f 9/79/9 91/39/91 96/23/96 19/89/19
f 71/90/71 89/35/89 95/36/95 77/91/77
f 79/88/79 70/92/70 92/34/92 97/31/97
f 74/93/74 93/6/93 92/29/92 70/94/70
f 77/91/77 95/36/95 88/5/88 72/95/72
f 19/89/19 96/23/96 87/1/87 6/96/6
f 14/97/14 94/2/94 90/21/90 12/98/12
f 24/99/24 11/100/11 89/16/89 98/13/98
f 72/95/72 88/5/88 93/6/93 74/93/74
f 6/96/6 87/1/87 94/2/94 14/97/14
f 104/101/104 54/104/54 53/103/53 103/102/103
f 88/5/88 103/102/103 53/103/53 5/8/5
f 20/105/20 54/108/54 104/107/104 95/106/95
f 75/109/75 105/51/105 106/111/106 73/110/73
f 73/110/73 106/111/106 107/44/107 76/112/76
f 81/113/81 108/17/108 105/51/105 75/109/75
f 76/46/76 107/115/107 109/114/109 82/45/82
f 78/116/78 110/10/110 108/17/108 81/113/81
f 82/117/82 109/9/109 110/10/110 78/116/78
f 111/118/111 112/121/112 115/120/115 113/119/113
f 114/122/114 116/123/116 112/121/112 111/118/111
f 76/124/76 114/127/114 111/126/111 73/125/73
f 81/128/81 115/129/115 112/60/112 78/57/78
f 75/130/75 113/133/113 115/132/115 81/131/81
f 73/125/73 111/126/111 113/135/113 75/134/75
o Cube.001
v 0.127811 1.275904 0.116678
v 0.196415 1.745153 -0.018892
v 0.114119 1.297213 -0.000203
v 0.199591 1.748655 -0.141464
v -0.003086 1.293844 -0.027372
v -0.003086 1.778652 -0.152213
v -0.003086 1.272064 0.149815
v -0.003086 1.770999 0.013700
v 0.095628 1.778652 -0.152213
v 0.079164 1.274023 0.149815
v 0.078378 1.295803 -0.027372
v 0.091633 1.770999 0.013700
v 0.178113 1.610593 -0.160246
v 0.180399 1.630158 0.050292
v -0.003086 1.652545 0.101547
v -0.003086 1.625045 -0.187956
v 0.094570 1.652545 0.101547
v 0.094570 1.625045 -0.187956
v 0.146159 1.504386 -0.065975
v 0.140667 1.517203 0.107485
v -0.003086 1.530736 0.153871
v -0.003086 1.512402 -0.108126
v 0.069803 1.529208 0.153871
v 0.069803 1.510874 -0.108126
v 0.142331 1.293724 0.055592
v 0.228367 1.738915 -0.078343
v -0.003086 1.774054 -0.078343
v -0.003086 1.289884 0.055610
v 0.091633 1.774054 -0.078343
v 0.078851 1.291843 0.055610
v 0.206573 1.615934 -0.043204
v 0.162277 1.508611 0.022873
v -0.127811 1.275904 0.116678
v -0.196415 1.745153 -0.018892
v -0.114119 1.297213 -0.000203
v -0.199591 1.748655 -0.141464
v 0.003086 1.293844 -0.027372
v 0.003086 1.778652 -0.152213
v 0.003086 1.272064 0.149815
v 0.003086 1.770999 0.013700
v -0.095628 1.778652 -0.152213
v -0.079164 1.274023 0.149815
v -0.078378 1.295803 -0.027372
v -0.091633 1.770999 0.013700
v -0.178113 1.610593 -0.160246
v -0.180399 1.630158 0.050292
v 0.003086 1.652545 0.101547
v 0.003086 1.625045 -0.187956
v -0.094570 1.652545 0.101547
v -0.094570 1.625045 -0.187956
v -0.146159 1.504386 -0.065975
v -0.140667 1.517203 0.107485
v 0.003086 1.530736 0.153871
v 0.003086 1.512402 -0.108126
v -0.069803 1.529208 0.153871
v -0.069803 1.510874 -0.108126
v -0.142331 1.293724 0.055592
v -0.228367 1.738915 -0.078343
v 0.003086 1.774054 -0.078343
v 0.003086 1.289884 0.055610
v -0.091633 1.774054 -0.078343
v -0.078851 1.291843 0.055610
v -0.206573 1.615934 -0.043204
v -0.162277 1.508611 0.022873
vn 0.6156 -0.7089 0.3441
vn 0.6601 0.6341 0.4027
vn 0.5468 -0.7307 -0.4087
vn 0.6543 0.5407 -0.5287
vn 0.0150 -0.8102 -0.5859
vn -0.0000 0.8021 -0.5972
vn 0.0183 -0.7795 0.6262
vn -0.0000 0.8856 0.4644
vn 0.1574 0.7933 -0.5881
vn 0.2468 -0.7073 0.6625
vn 0.2000 -0.7466 -0.6345
vn 0.1931 0.8554 0.4805
vn 0.6238 -0.3193 -0.7134
vn 0.7939 0.1325 0.5934
vn 0.0018 0.4974 0.8675
vn -0.0028 -0.1910 -0.9816
vn 0.2758 0.4369 0.8562
vn 0.1314 -0.1997 -0.9710
vn 0.7272 -0.4399 -0.5269
vn 0.7822 0.0230 0.6226
vn 0.0018 0.1951 0.9808
vn -0.0021 -0.4673 -0.8841
vn 0.2634 0.1670 0.9501
vn 0.1679 -0.4973 -0.8512
vn 0.7653 -0.6398 -0.0704
vn 0.8930 0.4501 0.0003
vn -0.0000 0.9989 0.0477
vn 0.0238 -0.9928 -0.1172
vn 0.1259 0.9910 0.0459
vn 0.0160 -0.9912 -0.1315
vn 0.9738 -0.2255 0.0298
vn 0.9760 -0.2139 0.0419
vn -0.6156 -0.7089 0.3441
vn -0.6601 0.6341 0.4027
vn -0.5468 -0.7307 -0.4087
vn -0.6543 0.5407 -0.5287
vn -0.0150 -0.8102 -0.5859
vn -0.0183 -0.7795 0.6262
vn -0.1574 0.7933 -0.5881
vn -0.2468 -0.7073 0.6625
vn -0.2000 -0.7466 -0.6345
vn -0.1931 0.8554 0.4805
vn -0.6238 -0.3193 -0.7134
vn -0.7939 0.1325 0.5934
vn -0.0018 0.4974 0.8675
vn 0.0028 -0.1910 -0.9816
vn -0.2758 0.4369 0.8562
vn -0.1314 -0.1997 -0.9710
vn -0.7272 -0.4399 -0.5269
vn -0.7822 0.0230 0.6226
vn -0.0018 0.1951 0.9808
vn 0.0021 -0.4673 -0.8841
vn -0.2634 0.1670 0.9501
vn -0.1679 -0.4973 -0.8512
vn -0.7653 -0.6398 -0.0704
vn -0.8930 0.4501 0.0003
vn -0.0238 -0.9928 -0.1172
vn -0.1259 0.9910 0.0459
vn -0.0160 -0.9912 -0.1315
vn -0.9738 -0.2255 0.0298
vn -0.9760 -0.2139 0.0419
vt 0.970782 0.033409
vt 0.970985 0.005965
vt 0.991550 0.010386
vt 0.987912 0.036001
vt 0.305273 0.896747
vt 0.308931 0.871708
vt 0.320174 0.876201
vt 0.323167 0.902408
vt 0.573712 0.959426
vt 0.586101 0.959426
vt 0.583206 0.971219
vt 0.573712 0.977684
vt 0.879434 0.434677
vt 0.879434 0.416340
vt 0.897409 0.416310
vt 0.897409 0.434647
vt 0.373841 0.919325
vt 0.374414 0.893336
vt 0.392902 0.893352
vt 0.392902 0.919342
vt 0.357066 0.921673
vt 0.353945 0.897044
vt 0.879750 0.462024
vt 0.891286 0.455614
vt 0.557653 0.959426
vt 0.557653 0.977684
vt 0.952063 0.035043
vt 0.952063 0.007618
vt 0.955869 0.059968
vt 0.969854 0.059037
vt 0.364813 0.945465
vt 0.378663 0.944920
vt 0.392890 0.944639
vt 0.308514 0.922091
vt 0.324346 0.927914
vt 0.986057 0.060899
vt 0.976170 0.106887
vt 0.987297 0.107376
vt 0.295442 0.966591
vt 0.306243 0.971813
vt 0.376774 0.993645
vt 0.392829 0.994035
vt 0.367269 0.992393
vt 0.960420 0.108635
vt 0.284265 0.961801
vt 0.292519 0.916143
vt 0.284265 0.889060
vt 0.557653 0.941169
vt 0.573712 0.941169
vt 0.867355 0.456283
vt 0.864989 0.435420
vt 0.864989 0.416310
vt 0.583942 0.947044
vt 0.298712 0.865690
s 1
usemtl character
f 134/136/134 125/137/125 120/138/120 129/139/129
f 147/140/147 142/141/142 118/142/118 130/143/130
f 146/144/146 141/145/141 117/146/117 126/147/126
f 145/148/145 143/149/143 124/150/124 128/151/128
f 133/152/133 128/153/128 124/154/124 131/155/131
f 130/156/130 118/157/118 128/153/128 133/152/133
f 142/158/142 145/148/145 128/151/128 118/159/118
f 144/160/144 146/144/146 126/147/126 123/161/123
f 132/162/132 122/163/122 125/137/125 134/136/134
f 138/164/138 132/162/132 134/136/134 140/165/140
f 136/166/136 130/156/130 133/152/133 139/167/139
f 139/167/139 133/152/133 131/155/131 137/168/137
f 148/169/148 147/140/147 130/143/130 136/170/136
f 140/165/140 134/136/134 129/139/129 135/171/135
f 127/172/127 140/165/140 135/171/135 119/173/119
f 141/174/141 148/169/148 136/170/136 117/175/117
f 126/176/126 139/167/139 137/168/137 123/177/123
f 117/178/117 136/166/136 139/167/139 126/176/126
f 121/179/121 138/164/138 140/165/140 127/172/127
f 119/180/119 135/181/135 148/169/148 141/174/141
f 135/181/135 129/182/129 147/140/147 148/169/148
f 121/183/121 127/184/127 146/144/146 144/160/144
f 120/185/120 125/186/125 145/148/145 142/158/142
f 125/186/125 122/187/122 143/149/143 145/148/145
f 127/184/127 119/188/119 141/145/141 146/144/146
f 129/182/129 120/189/120 142/141/142 147/140/147
f 166/136/164 161/139/159 152/138/152 157/137/155
f 179/140/176 162/143/160 150/142/150 174/141/172
f 178/144/175 158/147/156 149/146/149 173/145/171
f 177/148/174 160/151/158 156/150/124 175/149/143
f 165/152/163 163/155/161 156/154/124 160/153/158
f 162/156/160 165/152/163 160/153/158 150/157/150
f 174/158/172 150/159/150 160/151/158 177/148/174
f 176/160/173 155/161/154 158/147/156 178/144/175
f 164/162/162 166/136/164 157/137/155 154/163/122
f 170/164/168 172/165/170 166/136/164 164/162/162
f 168/166/166 171/167/169 165/152/163 162/156/160
f 171/167/169 169/168/167 163/155/161 165/152/163
f 180/169/177 168/170/166 162/143/160 179/140/176
f 172/165/170 167/171/165 161/139/159 166/136/164
f 159/172/157 151/173/151 167/171/165 172/165/170
f 173/174/171 149/175/149 168/170/166 180/169/177
f 158/176/156 155/177/154 169/168/167 171/167/169
f 149/178/149 158/176/156 171/167/169 168/166/166
f 153/179/153 159/172/157 172/165/170 170/164/168
f 151/180/151 173/174/171 180/169/177 167/181/165
f 167/181/165 180/169/177 179/140/176 161/182/159
f 153/183/153 176/160/173 178/144/175 159/184/157
f 152/185/152 174/158/172 177/148/174 157/186/155
f 157/186/155 177/148/174 175/149/143 154/187/122
f 159/184/157 178/144/175 173/145/171 151/188/151
f 161/182/159 179/140/176 174/141/172 152/189/152
o Cube.002
v 0.151725 1.207111 0.108712
v 0.130936 1.343911 0.120310
v 0.154350 1.209683 -0.032365
v 0.138910 1.343913 0.009109
v -0.005378 1.063687 -0.087845
v -0.005378 1.343211 -0.038086
v -0.005378 1.062159 0.135118
v -0.005378 1.341995 0.153955
v 0.077585 1.343505 -0.044738
v 0.083210 1.143895 0.150091
v 0.083210 1.144659 -0.100068
v 0.071026 1.341995 0.153955
v 0.142949 1.281201 -0.016658
v 0.140888 1.284906 0.113319
v -0.005378 1.203050 0.165844
v -0.005378 1.153592 -0.115073
v 0.076093 1.243919 0.159962
v 0.075161 1.229727 -0.109726
v 0.143147 1.309076 0.002489
v 0.135021 1.305646 0.118219
v -0.005378 1.268679 0.162543
v -0.005378 1.262168 -0.043679
v 0.073595 1.289801 0.155333
v 0.075106 1.297693 -0.058242
v 0.171799 1.225632 0.033984
v 0.150661 1.344513 0.063062
v -0.005378 1.343974 0.062701
v -0.005378 1.062923 0.023636
v 0.070540 1.343974 0.062701
v 0.083210 1.144277 0.028220
v 0.159576 1.293957 0.048318
v 0.154194 1.311414 0.055987
v -0.151725 1.207111 0.108712
v -0.130936 1.343911 0.120310
v -0.154350 1.209683 -0.032365
v -0.138910 1.343913 0.009109
v 0.005378 1.063687 -0.087845
v 0.005378 1.343211 -0.038086
v 0.005378 1.062159 0.135118
v 0.005378 1.341995 0.153955
v -0.077585 1.343505 -0.044738
v -0.083210 1.143895 0.150091
v -0.083210 1.144659 -0.100068
v -0.071026 1.341995 0.153955
v -0.142949 1.281201 -0.016658
v -0.140888 1.284906 0.113319
v 0.005378 1.203050 0.165844
v 0.005378 1.153592 -0.115073
v -0.076093 1.243919 0.159962
v -0.075161 1.229727 -0.109726
v -0.143147 1.309076 0.002489
v -0.135021 1.305646 0.118219
v 0.005378 1.268679 0.162543
v 0.005378 1.262168 -0.043679
v -0.073595 1.289801 0.155333
v -0.075106 1.297693 -0.058242
v -0.171799 1.225632 0.033984
v -0.150661 1.344513 0.063062
v 0.005378 1.343974 0.062701
v 0.005378 1.062923 0.023636
v -0.070540 1.343974 0.062701
v -0.083210 1.144277 0.028220
v -0.159576 1.293957 0.048318
v -0.154194 1.311414 0.055987
vn 0.8391 -0.3234 0.4373
vn 0.5681 0.6551 0.4980
vn 0.8842 -0.2753 -0.3775
vn 0.6111 0.7098 -0.3502
vn 0.6115 -0.6840 -0.3977
vn -0.1036 0.7703 -0.6292
vn 0.6014 -0.6910 0.4010
vn 0.0238 0.7274 0.6858
vn 0.2150 0.6997 -0.6813
vn 0.5439 -0.5043 0.6707
vn 0.6068 -0.4609 -0.6476
vn 0.1967 0.6671 0.7185
vn 0.7783 0.3314 -0.5333
vn 0.8056 0.0988 0.5841
vn 0.0617 -0.0807 0.9948
vn -0.0167 0.0123 -0.9998
vn 0.3084 -0.0008 0.9513
vn 0.2000 0.3268 -0.9237
vn 0.8383 0.2733 -0.4717
vn 0.7633 0.0840 0.6406
vn 0.0459 0.0753 0.9961
vn -0.3183 0.3878 -0.8651
vn 0.2911 0.0646 0.9545
vn 0.1793 0.3927 -0.9020
vn 0.9717 -0.2352 -0.0237
vn 0.7166 0.6943 0.0671
vn -0.0011 1.0000 0.0078
vn 0.6764 -0.7365 -0.0036
vn -0.0050 1.0000 0.0062
vn 0.6765 -0.7365 -0.0026
vn 0.9793 0.2024 -0.0034
vn 0.9846 0.1653 0.0576
vn -0.8391 -0.3234 0.4373
vn -0.5681 0.6551 0.4980
vn -0.8842 -0.2753 -0.3775
vn -0.6111 0.7098 -0.3502
vn -0.6115 -0.6840 -0.3977
vn 0.1036 0.7703 -0.6292
vn -0.6014 -0.6910 0.4010
vn -0.0238 0.7274 0.6858
vn -0.2150 0.6997 -0.6813
vn -0.5439 -0.5043 0.6707
vn -0.6068 -0.4609 -0.6476
vn -0.1967 0.6671 0.7185
vn -0.7783 0.3314 -0.5333
vn -0.8056 0.0988 0.5841
vn -0.0617 -0.0807 0.9948
vn 0.0167 0.0123 -0.9998
vn -0.3084 -0.0008 0.9513
vn -0.2000 0.3268 -0.9237
vn -0.8383 0.2733 -0.4717
vn -0.7633 0.0840 0.6406
vn -0.0459 0.0753 0.9961
vn 0.3183 0.3878 -0.8651
vn -0.2911 0.0646 0.9545
vn -0.1793 0.3927 -0.9020
vn -0.9717 -0.2352 -0.0237
vn -0.7166 0.6943 0.0671
vn 0.0011 1.0000 0.0078
vn -0.6764 -0.7365 -0.0036
vn 0.0050 1.0000 0.0062
vn -0.6765 -0.7365 -0.0026
vn -0.9793 0.2024 -0.0034
vn -0.9846 0.1653 0.0576
vt 0.022771 0.956409
vt 0.005965 0.953988
vt 0.008052 0.932666
vt 0.018830 0.932532
vt 0.017332 0.918459
vt 0.007902 0.919063
vt 0.005965 0.908003
vt 0.016801 0.907799
vt 0.677842 0.406526
vt 0.711222 0.407970
vt 0.703740 0.428739
vt 0.677928 0.440340
vt 0.517861 0.955987
vt 0.496672 0.955987
vt 0.496671 0.931851
vt 0.517860 0.931851
vt 0.801146 0.926091
vt 0.800521 0.911262
vt 0.820692 0.909749
vt 0.823106 0.930383
vt 0.781555 0.922822
vt 0.782333 0.911992
vt 0.539050 0.955759
vt 0.534249 0.940422
vt 0.644465 0.405409
vt 0.644465 0.436341
vt 0.955147 0.824332
vt 0.955350 0.801875
vt 0.976486 0.801939
vt 0.976997 0.818978
vt 0.955147 0.885614
vt 0.956013 0.862130
vt 0.978492 0.841096
vt 0.980210 0.864011
vt 0.778658 0.955454
vt 0.780496 0.933723
vt 0.802223 0.943909
vt 0.801334 0.971704
vt 0.824971 0.953621
vt 0.824971 0.992528
vt 0.046835 0.924076
vt 0.027369 0.921569
vt 0.027773 0.908434
vt 0.049581 0.908866
vt 0.066665 0.969311
vt 0.043262 0.971886
vt 0.031105 0.939680
vt 0.051422 0.942662
vt 0.644465 0.374476
vt 0.677749 0.370930
vt 0.534876 0.969011
vt 0.517860 0.983952
vt 0.496671 0.983952
vt 0.704578 0.389591
s 1
usemtl character
f 204/190/201 189/191/186 184/192/181 199/193/196
f 212/194/209 206/195/203 182/196/179 200/197/197
f 210/198/207 205/199/202 181/200/178 190/201/187
f 209/202/206 207/203/204 188/204/185 192/205/189
f 203/206/200 192/207/189 188/208/185 201/209/198
f 200/210/197 182/211/179 192/207/189 203/206/200
f 206/212/203 209/202/206 192/205/189 182/213/179
f 208/214/205 210/198/207 190/201/187 187/215/184
f 202/216/199 186/217/183 189/218/186 204/219/201
f 185/220/182 196/221/193 198/222/195 191/223/188
f 181/224/178 194/225/191 197/226/194 190/227/187
f 190/227/187 197/226/194 195/228/192 187/229/184
f 205/230/202 211/231/208 194/232/191 181/233/178
f 191/234/188 198/235/195 193/236/190 183/237/180
f 196/221/193 202/216/199 204/219/201 198/222/195
f 194/225/191 200/210/197 203/206/200 197/226/194
f 197/226/194 203/206/200 201/209/198 195/228/192
f 211/231/208 212/194/209 200/197/197 194/232/191
f 198/235/195 204/190/201 199/193/196 193/236/190
f 193/236/190 199/193/196 212/194/209 211/231/208
f 183/237/180 193/236/190 211/231/208 205/230/202
f 185/238/182 191/239/188 210/198/207 208/214/205
f 184/240/181 189/241/186 209/202/206 206/212/203
f 189/241/186 186/242/183 207/203/204 209/202/206
f 191/239/188 183/243/180 205/199/202 210/198/207
f 199/193/196 184/192/181 206/195/203 212/194/209
f 236/190/233 231/193/228 216/192/213 221/191/218
f 244/194/241 232/197/229 214/196/211 238/195/235
f 242/198/239 222/201/219 213/200/210 237/199/234
f 241/202/238 224/205/221 220/204/217 239/203/236
f 235/206/232 233/209/230 220/208/217 224/207/221
f 232/210/229 235/206/232 224/207/221 214/211/211
f 238/212/235 214/213/211 224/205/221 241/202/238
f 240/214/237 219/215/216 222/201/219 242/198/239
f 234/216/231 236/219/233 221/218/218 218/217/215
f 217/220/214 223/223/220 230/222/227 228/221/225
f 213/224/210 222/227/219 229/226/226 226/225/223
f 222/227/219 219/229/216 227/228/224 229/226/226
f 237/230/234 213/233/210 226/232/223 243/231/240
f 223/234/220 215/237/212 225/236/222 230/235/227
f 228/221/225 230/222/227 236/219/233 234/216/231
f 226/225/223 229/226/226 235/206/232 232/210/229
f 229/226/226 227/228/224 233/209/230 235/206/232
f 243/231/240 226/232/223 232/197/229 244/194/241
f 230/235/227 225/236/222 231/193/228 236/190/233
f 225/236/222 243/231/240 244/194/241 231/193/228
f 215/237/212 237/230/234 243/231/240 225/236/222
f 217/238/214 240/214/237 242/198/239 223/239/220
f 216/240/213 238/212/235 241/202/238 221/241/218
f 221/241/218 241/202/238 239/203/236 218/242/215
f 223/239/220 242/198/239 237/199/234 215/243/212
f 231/193/228 244/194/241 238/195/235 216/192/213
o Cube.003
v 0.176091 1.733352 -0.149509
v 0.433173 1.441548 -0.215851
v 0.170018 1.720787 -0.031864
v 0.430404 1.434623 -0.146134
v 0.121024 1.665646 -0.147299
v 0.391862 1.396559 -0.214815
v 0.118902 1.659594 -0.043930
v 0.395097 1.396054 -0.143118
v 0.253731 1.694413 -0.167294
v 0.252889 1.683481 -0.043375
v 0.196990 1.611197 -0.035003
v 0.188329 1.610081 -0.161343
v 0.322051 1.605644 -0.190375
v 0.317782 1.594062 -0.086480
v 0.264259 1.527717 -0.079383
v 0.259429 1.528246 -0.185779
v 0.184216 1.741892 -0.086316
v 0.441188 1.448244 -0.179844
v 0.108923 1.650732 -0.102753
v 0.387927 1.390283 -0.179249
v 0.182048 1.598557 -0.106070
v 0.270010 1.708787 -0.096508
v 0.253428 1.517617 -0.132590
v 0.334163 1.617336 -0.137415
v -0.176091 1.733352 -0.149509
v -0.433173 1.441548 -0.215851
v -0.170018 1.720787 -0.031864
v -0.430404 1.434623 -0.146134
v -0.121024 1.665646 -0.147299
v -0.391862 1.396559 -0.214815
v -0.118902 1.659594 -0.043930
v -0.395097 1.396054 -0.143118
v -0.253731 1.694413 -0.167294
v -0.252889 1.683481 -0.043375
v -0.196990 1.611197 -0.035003
v -0.188329 1.610081 -0.161343
v -0.322051 1.605644 -0.190375
v -0.317782 1.594062 -0.086480
v -0.264259 1.527717 -0.079383
v -0.259429 1.528246 -0.185779
v -0.184216 1.741892 -0.086316
v -0.441188 1.448244 -0.179844
v -0.108923 1.650732 -0.102753
v -0.387927 1.390283 -0.179249
v -0.182048 1.598557 -0.106070
v -0.270010 1.708787 -0.096508
v -0.253428 1.517617 -0.132590
v -0.334163 1.617336 -0.137415
vn 0.2774 -0.7646 0.5817
vn -0.6939 0.0984 0.7133
vn 0.2551 -0.6397 -0.7251
vn -0.8051 0.2362 -0.5440
vn 0.8099 -0.0370 0.5853
vn -0.0236 0.7414 0.6707
vn 0.7865 0.0649 -0.6141
vn -0.1724 0.8207 -0.5447
vn -0.2839 -0.5876 0.7577
vn -0.4758 -0.3380 -0.8120
vn 0.1998 0.4980 -0.8438
vn 0.5364 0.3458 0.7699
vn -0.3682 -0.4400 0.8191
vn -0.6420 -0.1260 -0.7563
vn 0.2354 0.5883 -0.7736
vn 0.5685 0.3502 0.7444
vn 0.1571 -0.9804 -0.1188
vn -0.9999 -0.0059 -0.0112
vn 0.9788 0.2046 0.0088
vn 0.0305 0.9991 0.0298
vn 0.6724 0.7401 -0.0126
vn -0.6463 -0.7519 -0.1303
vn 0.7150 0.6986 -0.0267
vn -0.8368 -0.5443 -0.0597
vn -0.2774 -0.7646 0.5817
vn 0.6939 0.0984 0.7133
vn -0.2551 -0.6397 -0.7251
vn 0.8051 0.2362 -0.5440
vn -0.8099 -0.0370 0.5853
vn 0.0236 0.7414 0.6707
vn -0.7865 0.0649 -0.6141
vn 0.1724 0.8207 -0.5447
vn 0.2839 -0.5876 0.7577
vn 0.4758 -0.3380 -0.8120
vn -0.1998 0.4980 -0.8438
vn -0.5364 0.3458 0.7699
vn 0.3682 -0.4400 0.8191
vn 0.6420 -0.1260 -0.7563
vn -0.2354 0.5883 -0.7736
vn -0.5685 0.3502 0.7444
vn -0.1571 -0.9804 -0.1188
vn 0.9999 -0.0059 -0.0112
vn -0.9788 0.2046 0.0088
vn -0.0305 0.9991 0.0298
vn -0.6724 0.7401 -0.0126
vn 0.6463 -0.7519 -0.1303
vn -0.7150 0.6986 -0.0267
vn 0.8368 -0.5443 -0.0597
vt 0.819176 0.418536
vt 0.806214 0.343846
vt 0.828655 0.343964
vt 0.853058 0.417580
vt 0.598611 0.748590
vt 0.624821 0.675663
vt 0.665422 0.673681
vt 0.664848 0.745391
vt 0.812337 0.086016
vt 0.799246 0.023402
vt 0.820073 0.005966
vt 0.843626 0.060158
vt 0.779130 0.251022
vt 0.778819 0.192001
vt 0.826041 0.196176
vt 0.856017 0.258685
vt 0.832076 0.838946
vt 0.816076 0.896276
vt 0.782922 0.880021
vt 0.783817 0.835741
vt 0.669237 0.654774
vt 0.608467 0.659756
vt 0.613258 0.640829
vt 0.660463 0.637253
vt 0.778819 0.314913
vt 0.784928 0.287802
vt 0.867244 0.296313
vt 0.846117 0.322077
vt 0.837718 0.142239
vt 0.820020 0.122629
vt 0.852590 0.095842
vt 0.863480 0.120907
vt 0.608879 0.816485
vt 0.585672 0.794637
vt 0.656634 0.791222
vt 0.669237 0.804150
vt 0.833190 0.801875
vt 0.872755 0.824408
vt 0.872755 0.859196
vt 0.557653 0.770279
vt 0.572326 0.725056
vt 0.784128 0.442154
vt 0.778819 0.403279
vt 0.838080 0.462024
vt 0.777739 0.159592
vt 0.780827 0.113848
vt 0.778658 0.803061
vt 0.802928 0.172804
vt 0.861181 0.897818
vt 0.777738 0.042120
vt 0.778819 0.334008
s 1
usemtl character
f 268/244/265 262/245/259 248/246/245 258/247/255
f 258/248/255 248/249/245 252/250/249 259/251/256
f 267/252/264 264/253/261 250/254/247 260/255/257
f 260/256/257 250/257/247 246/258/243 257/259/254
f 261/260/258 263/261/260 249/262/246 245/263/242
f 264/264/261 262/265/259 246/266/243 250/267/247
f 249/268/246 256/269/253 253/270/250 245/271/242
f 263/272/260 265/273/262 256/274/253 249/275/246
f 247/276/244 254/277/251 255/278/252 251/279/248
f 261/260/258 266/280/263 254/281/251 247/282/244
f 256/269/253 260/256/257 257/259/254 253/270/250
f 265/273/262 267/252/264 260/255/257 256/274/253
f 254/277/251 258/248/255 259/251/256 255/278/252
f 266/283/263 268/284/265 258/248/255 254/277/251
f 253/285/250 257/286/254 268/244/265 266/287/263
f 255/288/252 259/289/256 267/252/264 265/273/262
f 245/263/242 253/290/250 266/280/263 261/260/258
f 251/291/248 255/288/252 265/273/262 263/272/260
f 252/250/249 248/249/245 262/265/259 264/264/261
f 247/282/244 251/292/248 263/261/260 261/260/258
f 259/289/256 252/293/249 264/253/261 267/252/264
f 257/286/254 246/294/243 262/245/259 268/244/265
f 292/244/289 282/247/279 272/246/269 286/245/283
f 282/248/279 283/251/280 276/250/273 272/249/269
f 291/252/288 284/255/281 274/254/271 288/253/285
f 284/256/281 281/259/278 270/258/267 274/257/271
f 285/260/282 269/263/266 273/262/270 287/261/284
f 288/264/285 274/267/271 270/266/267 286/265/283
f 273/268/270 269/271/266 277/270/274 280/269/277
f 287/272/284 273/275/270 280/274/277 289/273/286
f 271/276/268 275/279/272 279/278/276 278/277/275
f 285/260/282 271/282/268 278/281/275 290/280/287
f 280/269/277 277/270/274 281/259/278 284/256/281
f 289/273/286 280/274/277 284/255/281 291/252/288
f 278/277/275 279/278/276 283/251/280 282/248/279
f 290/283/287 278/277/275 282/248/279 292/284/289
f 277/285/274 290/287/287 292/244/289 281/286/278
f 279/288/276 289/273/286 291/252/288 283/289/280
f 269/263/266 285/260/282 290/280/287 277/290/274
f 275/291/272 287/272/284 289/273/286 279/288/276
f 276/250/273 288/264/285 286/265/283 272/249/269
f 271/282/268 285/260/282 287/261/284 275/292/272
f 283/289/280 291/252/288 288/253/285 276/293/273
f 281/286/278 292/244/289 286/245/283 270/294/267
o Cube.004
v 0.429205 1.446556 -0.205462
v 0.589434 1.174202 -0.132632
v 0.429272 1.462530 -0.150877
v 0.589460 1.184366 -0.097714
v 0.358202 1.412536 -0.189503
v 0.557428 1.161898 -0.124725
v 0.358264 1.427277 -0.139130
v 0.557452 1.171277 -0.092501
v 0.509087 1.396082 -0.211340
v 0.509118 1.409902 -0.129398
v 0.408211 1.330917 -0.097410
v 0.408183 1.318163 -0.173030
v 0.393789 1.449875 -0.128014
v 0.573465 1.180985 -0.084240
v 0.393683 1.424793 -0.213723
v 0.573423 1.165026 -0.139068
v 0.458626 1.353010 -0.216566
v 0.458674 1.374711 -0.087901
v -0.429205 1.446556 -0.205462
v -0.589434 1.174202 -0.132632
v -0.429272 1.462530 -0.150877
v -0.589460 1.184366 -0.097714
v -0.358202 1.412536 -0.189503
v -0.557428 1.161898 -0.124725
v -0.358264 1.427277 -0.139130
v -0.557452 1.171277 -0.092501
v -0.509087 1.396082 -0.211340
v -0.509118 1.409902 -0.129398
v -0.408211 1.330917 -0.097410
v -0.408183 1.318163 -0.173030
v -0.393789 1.449875 -0.128014
v -0.573465 1.180985 -0.084240
v -0.393683 1.424793 -0.213723
v -0.573423 1.165026 -0.139068
v -0.458626 1.353010 -0.216566
v -0.458674 1.374711 -0.087901
vn -0.0449 -0.7692 0.6374
vn -0.8302 0.4601 0.3149
vn -0.0929 -0.9825 -0.1615
vn -0.8609 0.2362 -0.4505
vn 0.8835 -0.1214 0.4525
vn 0.2201 0.9645 0.1463
vn 0.8754 -0.3623 -0.3201
vn 0.1787 0.7759 -0.6050
vn -0.6301 -0.3759 0.6795
vn -0.6851 -0.6270 -0.3710
vn 0.6652 0.3197 -0.6747
vn 0.7084 0.5924 0.3836
vn 0.3384 -0.7788 -0.5282
vn -0.3529 0.3409 -0.8714
vn 0.4370 -0.3450 0.8307
vn -0.2161 0.7817 0.5850
vn 0.0860 0.2510 0.9642
vn -0.0627 -0.2814 -0.9576
vn 0.0449 -0.7692 0.6374
vn 0.8302 0.4601 0.3149
vn 0.0929 -0.9825 -0.1615
vn 0.8609 0.2362 -0.4505
vn -0.8835 -0.1214 0.4525
vn -0.2201 0.9645 0.1463
vn -0.8754 -0.3623 -0.3201
vn -0.1787 0.7759 -0.6050
vn 0.6301 -0.3759 0.6795
vn 0.6851 -0.6270 -0.3710
vn -0.6652 0.3197 -0.6747
vn -0.7084 0.5924 0.3836
vn -0.3384 -0.7788 -0.5282
vn 0.3529 0.3409 -0.8714
vn -0.4370 -0.3450 0.8307
vn 0.2161 0.7817 0.5850
vn -0.0860 0.2510 0.9642
vn 0.0627 -0.2814 -0.9576
vt 0.654743 0.005966
vt 0.757373 0.005966
vt 0.750579 0.028210
vt 0.644464 0.058950
vt 0.675670 0.132058
vt 0.756079 0.051015
vt 0.765808 0.059973
vt 0.713273 0.172184
vt 0.235529 0.462503
vt 0.269161 0.339061
vt 0.306282 0.335721
vt 0.319991 0.454821
vt 0.105498 0.707140
vt 0.011459 0.658925
vt 0.014294 0.637587
vt 0.124142 0.637587
vt 0.683462 0.578506
vt 0.666409 0.622933
vt 0.608121 0.625322
vt 0.584285 0.582570
vt 0.256832 0.327105
vt 0.269540 0.312896
vt 0.309765 0.309275
vt 0.319991 0.321421
vt 0.557653 0.542322
vt 0.573754 0.474424
vt 0.598036 0.538278
vt 0.254829 0.500705
vt 0.312880 0.495500
vt 0.650731 0.155357
vt 0.672695 0.180070
vt 0.665613 0.474424
vt 0.661198 0.535689
vt 0.701889 0.542322
vt 0.119996 0.770858
vt 0.078112 0.760042
vt 0.132514 0.737406
vt 0.005965 0.672026
s 1
usemtl character
f 301/295/298 294/296/291 296/297/293 302/298/299
f 310/299/307 306/300/303 300/301/297 303/302/300
f 303/303/300 300/304/297 298/305/295 304/306/301
f 309/307/306 308/308/305 294/309/291 301/310/298
f 305/311/302 299/312/296 297/313/294 307/314/304
f 306/315/303 296/316/293 294/317/291 308/318/305
f 307/314/304 309/319/306 301/320/298 293/321/290
f 299/322/296 303/303/300 304/306/301 297/323/294
f 305/324/302 310/299/307 303/302/300 299/325/296
f 293/321/290 301/320/298 302/326/299 295/327/292
f 295/327/292 302/326/299 310/328/307 305/311/302
f 297/329/294 304/330/301 309/307/306 307/331/304
f 300/304/297 306/315/303 308/318/305 298/305/295
f 295/327/292 305/311/302 307/314/304 293/321/290
f 304/330/301 298/332/295 308/308/305 309/307/306
f 302/298/299 296/297/293 306/300/303 310/299/307
f 319/295/316 320/298/317 314/297/311 312/296/309
f 328/299/325 321/302/318 318/301/315 324/300/321
f 321/303/318 322/306/319 316/305/313 318/304/315
f 327/307/324 319/310/316 312/309/309 326/308/323
f 323/311/320 325/314/322 315/313/312 317/312/314
f 324/315/321 326/318/323 312/317/309 314/316/311
f 325/314/322 311/321/308 319/320/316 327/319/324
f 317/322/314 315/323/312 322/306/319 321/303/318
f 323/324/320 317/325/314 321/302/318 328/299/325
f 311/321/308 313/327/310 320/326/317 319/320/316
f 313/327/310 323/311/320 328/328/325 320/326/317
f 315/329/312 325/331/322 327/307/324 322/330/319
f 318/304/315 316/305/313 326/318/323 324/315/321
f 313/327/310 311/321/308 325/314/322 323/311/320
f 322/330/319 327/307/324 326/308/323 316/332/313
f 320/298/317 328/299/325 324/300/321 314/297/311
o Cube.005
v 0.633956 1.111489 -0.052932
v 0.544259 1.185249 -0.094695
v 0.629801 1.068632 -0.152690
v 0.540103 1.174240 -0.149381
v 0.672791 1.135738 -0.059273
v 0.587438 1.210333 -0.101276
v 0.668635 1.092880 -0.159030
v 0.583282 1.199323 -0.155963
v 0.591208 1.152271 -0.063904
v 0.587052 1.123636 -0.163998
v 0.630231 1.148719 -0.170579
v 0.634387 1.177354 -0.070485
v 0.621300 1.009704 -0.129518
v 0.628294 1.048250 -0.028517
v 0.650999 1.009570 -0.128822
v 0.657993 1.048117 -0.027820
v 0.580852 0.976531 -0.104035
v 0.589506 1.001597 -0.024192
v 0.598470 0.962364 -0.099436
v 0.607124 0.987430 -0.019593
v 0.633737 1.132683 -0.002972
v 0.656666 1.108609 -0.012062
v 0.633480 1.094650 -0.017452
v 0.607958 1.118235 -0.008537
v 0.633434 1.080312 0.026265
v 0.651747 1.061083 0.019005
v 0.633228 1.049934 0.014700
v 0.612843 1.068772 0.021821
v -0.633956 1.111489 -0.052932
v -0.544259 1.185249 -0.094695
v -0.629801 1.068632 -0.152690
v -0.540103 1.174240 -0.149381
v -0.672791 1.135738 -0.059273
v -0.587438 1.210333 -0.101276
v -0.668635 1.092880 -0.159030
v -0.583282 1.199323 -0.155963
v -0.591208 1.152271 -0.063904
v -0.587052 1.123636 -0.163998
v -0.630231 1.148719 -0.170579
v -0.634387 1.177354 -0.070485
v -0.621300 1.009704 -0.129518
v -0.628294 1.048250 -0.028517
v -0.650999 1.009570 -0.128822
v -0.657993 1.048117 -0.027820
v -0.580852 0.976531 -0.104035
v -0.589506 1.001597 -0.024192
v -0.598470 0.962364 -0.099436
v -0.607124 0.987430 -0.019593
v -0.633737 1.132683 -0.002972
v -0.656666 1.108609 -0.012062
v -0.633480 1.094650 -0.017452
v -0.607958 1.118235 -0.008537
v -0.633434 1.080312 0.026265
v -0.651747 1.061083 0.019005
v -0.633228 1.049934 0.014700
v -0.612843 1.068772 0.021821
vn -0.7003 -0.6563 0.2807
vn -0.8609 0.2175 0.4599
vn -0.5602 -0.4018 -0.7244
vn -0.9036 0.0392 -0.4265
vn 0.9322 0.2905 0.2159
vn 0.0566 0.9686 0.2421
vn 0.7289 -0.0299 -0.6839
vn 0.0164 0.7675 -0.6408
vn -0.7780 -0.0361 0.6272
vn -0.5993 -0.4930 -0.6307
vn 0.4176 0.3624 -0.8332
vn 0.4295 0.8430 0.3240
vn -0.5924 -0.1331 -0.7946
vn -0.5704 0.4094 0.7120
vn 0.6500 -0.5641 -0.5093
vn 0.6625 -0.1136 0.7404
vn -0.8720 -0.2462 -0.4230
vn -0.8174 0.0924 0.5687
vn 0.0249 -0.9791 -0.2020
vn 0.0852 -0.6476 0.7572
vn 0.1221 0.6852 0.7181
vn 0.9814 -0.1050 0.1609
vn -0.1108 -0.7596 -0.6409
vn -0.9446 0.0726 0.3200
vn 0.1151 0.2108 0.9707
vn 0.7958 -0.5078 0.3299
vn -0.0813 -0.9965 0.0168
vn -0.8288 -0.3582 0.4298
vn 0.7003 -0.6563 0.2807
vn 0.8609 0.2175 0.4599
vn 0.5602 -0.4018 -0.7244
vn 0.9036 0.0392 -0.4265
vn -0.9322 0.2905 0.2159
vn -0.0566 0.9686 0.2421
vn -0.7289 -0.0299 -0.6839
vn -0.0164 0.7675 -0.6408
vn 0.7780 -0.0361 0.6272
vn 0.5993 -0.4930 -0.6307
vn -0.4176 0.3624 -0.8332
vn -0.4295 0.8430 0.3240
vn 0.5924 -0.1331 -0.7946
vn 0.5704 0.4094 0.7120
vn -0.6500 -0.5641 -0.5093
vn -0.6625 -0.1136 0.7404
vn 0.8720 -0.2462 -0.4230
vn 0.8174 0.0924 0.5687
vn -0.0249 -0.9791 -0.2020
vn -0.0852 -0.6476 0.7572
vn -0.1221 0.6852 0.7181
vn -0.9814 -0.1050 0.1609
vn 0.1108 -0.7596 -0.6409
vn 0.9446 0.0726 0.3200
vn -0.1151 0.2108 0.9707
vn -0.7958 -0.5078 0.3299
vn 0.0813 -0.9965 0.0168
vn 0.8288 -0.3582 0.4298
vt 0.949851 0.706804
vt 0.949851 0.767142
vt 0.918388 0.787805
vt 0.893651 0.748781
vt 0.050192 0.164391
vt 0.005965 0.214349
vt 0.014658 0.065191
vt 0.058885 0.015233
vt 0.005965 0.849362
vt 0.007804 0.782789
vt 0.045199 0.782789
vt 0.076963 0.846944
vt 0.918200 0.402046
vt 0.879175 0.342147
vt 0.879175 0.192001
vt 0.918200 0.251899
vt 0.097908 0.142802
vt 0.104893 0.005965
vt 0.138657 0.187131
vt 0.123979 0.261685
vt 0.977781 0.481717
vt 0.977781 0.631040
vt 0.940745 0.623747
vt 0.940745 0.474424
vt 0.723757 0.474424
vt 0.766727 0.499837
vt 0.749279 0.598251
vt 0.725266 0.575398
vt 0.007250 0.891573
vt 0.086893 0.895868
vt 0.942643 0.665875
vt 0.893884 0.728546
vt 0.561440 0.226521
vt 0.632534 0.189595
vt 0.618448 0.413157
vt 0.562340 0.441890
vt 0.150861 0.309275
vt 0.223598 0.344944
vt 0.223598 0.465525
vt 0.150588 0.429831
vt 0.557653 0.042878
vt 0.627957 0.005965
vt 0.523349 0.296236
vt 0.545722 0.432098
vt 0.529608 0.553619
vt 0.506611 0.480799
vt 0.557653 0.462493
vt 0.613761 0.433760
vt 0.221528 0.627730
vt 0.164518 0.599939
vt 0.545722 0.723096
vt 0.527639 0.703342
vt 0.138657 0.402594
vt 0.122907 0.424122
vt 0.766727 0.681656
vt 0.746936 0.758611
vt 0.733000 0.691993
vt 0.967765 0.192001
vt 0.967765 0.341324
vt 0.936213 0.371901
vt 0.930131 0.287042
vt 0.778658 0.536303
vt 0.828816 0.504527
vt 0.830881 0.547810
vt 0.801448 0.574972
vt 0.098824 0.919870
vt 0.098824 0.782789
vt 0.127160 0.881829
vt 0.121164 0.959604
vt 0.713820 0.673740
vt 0.726178 0.734721
vt 0.854721 0.474424
vt 0.854721 0.573633
vt 0.835679 0.632248
vt 0.812170 0.653944
s 1
usemtl character
f 337/333/334 330/334/327 332/335/329 338/336/335
f 338/337/335 332/338/329 336/339/333 339/340/336
f 339/341/336 336/342/333 334/343/331 340/344/337
f 340/345/337 334/346/331 330/347/327 337/348/334
f 331/349/328 335/350/332 343/351/340 341/352/338
f 336/353/333 332/354/329 330/355/327 334/356/331
f 333/357/330 340/358/337 349/359/346 350/360/347
f 335/361/332 339/341/336 340/344/337 333/362/330
f 331/349/328 338/337/335 339/340/336 335/350/332
f 329/363/326 337/333/334 338/336/335 331/364/328
f 343/365/340 344/366/341 348/367/345 347/368/344
f 329/369/326 331/370/328 341/371/338 342/372/339
f 335/373/332 333/374/330 344/366/341 343/365/340
f 333/375/330 329/376/326 342/377/339 344/378/341
f 345/379/342 347/368/344 348/367/345 346/380/343
f 342/372/339 341/371/338 345/381/342 346/382/343
f 344/378/341 342/377/339 346/383/343 348/384/345
f 341/352/338 343/351/340 347/385/344 345/386/342
f 349/359/346 352/387/349 356/388/353 353/389/350
f 340/390/337 337/391/334 352/392/349 349/393/346
f 337/394/334 329/395/326 351/396/348 352/397/349
f 329/398/326 333/399/330 350/400/347 351/401/348
f 354/402/351 353/389/350 356/388/353 355/403/352
f 351/396/348 350/404/347 354/405/351 355/406/352
f 352/397/349 351/396/348 355/406/352 356/407/353
f 350/360/347 349/359/346 353/389/350 354/402/351
f 365/333/362 366/336/363 360/335/357 358/334/355
f 366/337/363 367/340/364 364/339/361 360/338/357
f 367/341/364 368/344/365 362/343/359 364/342/361
f 368/345/365 365/348/362 358/347/355 362/346/359
f 359/349/356 369/352/366 371/351/368 363/350/360
f 364/353/361 362/356/359 358/355/355 360/354/357
f 361/357/358 378/360/375 377/359/374 368/358/365
f 363/361/360 361/362/358 368/344/365 367/341/364
f 359/349/356 363/350/360 367/340/364 366/337/363
f 357/363/354 359/364/356 366/336/363 365/333/362
f 371/365/368 375/368/372 376/367/373 372/366/369
f 357/369/354 370/372/367 369/371/366 359/370/356
f 363/373/360 371/365/368 372/366/369 361/374/358
f 361/375/358 372/378/369 370/377/367 357/376/354
f 373/379/370 374/380/371 376/367/373 375/368/372
f 370/372/367 374/382/371 373/381/370 369/371/366
f 372/378/369 376/384/373 374/383/371 370/377/367
f 369/352/366 373/386/370 375/385/372 371/351/368
f 377/359/374 381/389/378 384/388/381 380/387/377
f 368/390/365 377/393/374 380/392/377 365/391/362
f 365/394/362 380/397/377 379/396/376 357/395/354
f 357/398/354 379/401/376 378/400/375 361/399/358
f 382/402/379 383/403/380 384/388/381 381/389/378
f 379/396/376 383/406/380 382/405/379 378/404/375
f 380/397/377 384/407/381 383/406/380 379/396/376
f 378/360/375 382/402/379 381/389/378 377/359/374
o Cube.006
v 0.155878 1.250676 0.006714
v 0.220177 0.693467 -0.042548
v 0.142461 1.253419 0.107805
v 0.211026 0.698362 0.022374
v 0.011990 1.125221 -0.055087
v 0.136950 0.647479 -0.063705
v -0.002747 1.096342 0.053166
v 0.127875 0.652334 0.000683
v 0.218136 1.061671 -0.021010
v 0.204054 1.064912 0.078903
v 0.020732 0.955659 0.061168
v 0.034697 0.952445 -0.037922
v 0.227983 0.914136 -0.033757
v 0.214396 0.918193 0.053345
v 0.080660 0.773372 0.034303
v 0.094135 0.762894 -0.053004
v 0.063027 1.174320 0.144647
v 0.173660 0.671755 0.043732
v 0.092656 1.210935 -0.076103
v 0.191394 0.662268 -0.082090
v 0.132145 1.005739 -0.070113
v 0.104854 1.012021 0.123522
v 0.166586 0.835641 -0.078992
v 0.140255 0.849810 0.090719
v -0.155878 1.250676 0.006714
v -0.220177 0.693467 -0.042548
v -0.142461 1.253419 0.107805
v -0.211026 0.698362 0.022374
v -0.011990 1.125221 -0.055087
v -0.136950 0.647479 -0.063705
v 0.002747 1.096342 0.053166
v -0.127875 0.652334 0.000683
v -0.218136 1.061671 -0.021010
v -0.204054 1.064912 0.078903
v -0.020732 0.955659 0.061168
v -0.034697 0.952445 -0.037922
v -0.227983 0.914136 -0.033757
v -0.214396 0.918193 0.053345
v -0.080660 0.773372 0.034303
v -0.094135 0.762894 -0.053004
v -0.063027 1.174320 0.144647
v -0.173660 0.671755 0.043732
v -0.092656 1.210935 -0.076103
v -0.191394 0.662268 -0.082090
v -0.132145 1.005739 -0.070113
v -0.104854 1.012021 0.123522
v -0.166586 0.835641 -0.078992
v -0.140255 0.849810 0.090719
vn -0.3386 -0.8945 0.2921
vn -0.9054 0.3542 0.2339
vn -0.2290 -0.8171 -0.5290
vn -0.8146 0.3712 -0.4456
vn 0.7888 -0.2276 0.5709
vn 0.3928 0.7779 0.4905
vn 0.9515 -0.1441 -0.2719
vn 0.4690 0.8289 -0.3048
vn -0.8964 -0.1926 0.3993
vn -0.8168 -0.0870 -0.5703
vn 0.8691 0.2658 -0.4172
vn 0.7645 0.1712 0.6215
vn -0.9013 -0.0657 0.4283
vn -0.8326 0.0497 -0.5517
vn 0.8207 0.3721 -0.4336
vn 0.7517 0.2057 0.6267
vn 0.3918 -0.4074 -0.8250
vn -0.2010 0.6454 -0.7369
vn 0.2204 -0.5892 0.7773
vn -0.3570 0.5869 0.7267
vn -0.1343 -0.0473 0.9898
vn 0.0576 0.1526 -0.9866
vn -0.1674 -0.0295 0.9855
vn -0.0420 0.2312 -0.9720
vn 0.3386 -0.8945 0.2921
vn 0.9054 0.3542 0.2339
vn 0.2290 -0.8171 -0.5290
vn 0.8146 0.3712 -0.4456
vn -0.7888 -0.2276 0.5709
vn -0.3928 0.7779 0.4905
vn -0.9515 -0.1441 -0.2719
vn -0.4690 0.8289 -0.3048
vn 0.8964 -0.1926 0.3993
vn 0.8168 -0.0870 -0.5703
vn -0.8691 0.2658 -0.4172
vn -0.7645 0.1712 0.6215
vn 0.9013 -0.0657 0.4283
vn 0.8326 0.0497 -0.5517
vn -0.8207 0.3721 -0.4336
vn -0.7517 0.2057 0.6267
vn -0.3918 -0.4074 -0.8250
vn 0.2010 0.6454 -0.7369
vn -0.2204 -0.5892 0.7773
vn 0.3570 0.5869 0.7267
vn 0.1343 -0.0473 0.9898
vn -0.0576 0.1526 -0.9866
vn 0.1674 -0.0295 0.9855
vn 0.0420 0.2312 -0.9720
vt 0.501833 0.801259
vt 0.515941 0.735027
vt 0.545722 0.745573
vt 0.542089 0.814651
vt 0.708805 0.252284
vt 0.727844 0.196145
vt 0.766658 0.192001
vt 0.766888 0.233536
vt 0.896538 0.846227
vt 0.912299 0.806960
vt 0.943216 0.801875
vt 0.938435 0.838150
vt 0.403864 0.647286
vt 0.388528 0.597290
vt 0.417861 0.603216
vt 0.461303 0.663127
vt 0.235529 0.813904
vt 0.235529 0.739485
vt 0.283564 0.717085
vt 0.330495 0.763826
vt 0.726960 0.985871
vt 0.700692 0.974116
vt 0.700692 0.942520
vt 0.726960 0.924637
vt 0.424527 0.757420
vt 0.414067 0.697307
vt 0.482789 0.704625
vt 0.483357 0.762518
vt 0.890415 0.943917
vt 0.884686 0.903269
vt 0.932363 0.896621
vt 0.943216 0.945650
vt 0.690972 0.353016
vt 0.696676 0.302904
vt 0.766888 0.291865
vt 0.761339 0.330575
vt 0.499026 0.904922
vt 0.496672 0.846303
vt 0.542844 0.861271
vt 0.545722 0.919920
vt 0.644951 0.298598
vt 0.666925 0.256103
vt 0.353945 0.691968
vt 0.353945 0.634220
vt 0.644464 0.358999
vt 0.366705 0.741559
vt 0.761456 0.967627
vt 0.761456 0.936292
vt 0.286909 0.853759
vt 0.327860 0.827076
vt 0.357543 0.598426
vt 0.708505 0.195731
s 1
usemtl character
f 397/408/394 386/409/383 388/410/385 398/411/395
f 408/412/405 402/413/399 392/414/389 399/415/396
f 399/416/396 392/417/389 390/418/387 400/419/397
f 407/420/404 404/421/401 386/422/383 397/423/394
f 401/424/398 391/425/388 389/426/386 403/427/400
f 402/428/399 388/429/385 386/430/383 404/431/401
f 403/432/400 405/433/402 393/434/390 385/435/382
f 391/436/388 395/437/392 396/438/393 389/439/386
f 401/440/398 406/441/403 395/442/392 391/443/388
f 385/444/382 393/445/390 394/446/391 387/447/384
f 405/433/402 407/420/404 397/423/394 393/434/390
f 395/437/392 399/416/396 400/419/397 396/438/393
f 406/441/403 408/412/405 399/415/396 395/442/392
f 393/445/390 397/408/394 398/411/395 394/446/391
f 394/448/391 398/449/395 408/412/405 406/441/403
f 396/450/393 400/451/397 407/420/404 405/433/402
f 387/452/384 394/448/391 406/441/403 401/440/398
f 389/453/386 396/450/393 405/433/402 403/432/400
f 392/454/389 402/428/399 404/431/401 390/455/387
f 387/456/384 401/424/398 403/427/400 385/457/382
f 400/451/397 390/458/387 404/421/401 407/420/404
f 398/449/395 388/459/385 402/413/399 408/412/405
f 421/408/418 422/411/419 412/410/409 410/409/407
f 432/412/429 423/415/420 416/414/413 426/413/423
f 423/416/420 424/419/421 414/418/411 416/417/413
f 431/420/428 421/423/418 410/422/407 428/421/425
f 425/424/422 427/427/424 413/426/410 415/425/412
f 426/428/423 428/431/425 410/430/407 412/429/409
f 427/432/424 409/435/406 417/434/414 429/433/426
f 415/436/412 413/439/410 420/438/417 419/437/416
f 425/440/422 415/443/412 419/442/416 430/441/427
f 409/444/406 411/447/408 418/446/415 417/445/414
f 429/433/426 417/434/414 421/423/418 431/420/428
f 419/437/416 420/438/417 424/419/421 423/416/420
f 430/441/427 419/442/416 423/415/420 432/412/429
f 417/445/414 418/446/415 422/411/419 421/408/418
f 418/448/415 430/441/427 432/412/429 422/449/419
f 420/450/417 429/433/426 431/420/428 424/451/421
f 411/452/408 425/440/422 430/441/427 418/448/415
f 413/453/410 427/432/424 429/433/426 420/450/417
f 416/454/413 414/455/411 428/431/425 426/428/423
f 411/456/408 409/457/406 427/427/424 425/424/422
f 424/451/421 431/420/428 428/421/425 414/458/411
f 422/449/419 432/412/429 426/413/423 412/459/409
o Cube.007
v 0.199906 0.758317 -0.004300
v 0.259635 0.172213 -0.118493
v 0.193545 0.749240 0.031829
v 0.254632 0.167569 -0.083200
v 0.142913 0.719961 -0.029290
v 0.204171 0.156048 -0.130840
v 0.134346 0.702887 0.009148
v 0.199209 0.151442 -0.095837
v 0.273844 0.550787 -0.136453
v 0.263405 0.545126 -0.033088
v 0.116201 0.480164 -0.060477
v 0.126555 0.485725 -0.163223
v 0.267941 0.388482 -0.135443
v 0.263579 0.387195 -0.060346
v 0.175583 0.365096 -0.073978
v 0.178334 0.363954 -0.149679
v 0.167214 0.717795 0.039994
v 0.224242 0.157020 -0.070624
v 0.181749 0.743273 -0.032572
v 0.233938 0.166020 -0.139025
v 0.204446 0.523198 -0.180455
v 0.184214 0.506142 -0.006495
v 0.224613 0.377166 -0.159217
v 0.217698 0.374989 -0.045209
v -0.199906 0.758317 -0.004300
v -0.259635 0.172213 -0.118493
v -0.193545 0.749240 0.031829
v -0.254632 0.167569 -0.083200
v -0.142913 0.719961 -0.029290
v -0.204171 0.156048 -0.130840
v -0.134346 0.702887 0.009148
v -0.199209 0.151442 -0.095837
v -0.273844 0.550787 -0.136453
v -0.263405 0.545126 -0.033088
v -0.116201 0.480164 -0.060477
v -0.126555 0.485725 -0.163223
v -0.267941 0.388482 -0.135443
v -0.263579 0.387195 -0.060346
v -0.175583 0.365096 -0.073978
v -0.178334 0.363954 -0.149679
v -0.167214 0.717795 0.039994
v -0.224242 0.157020 -0.070624
v -0.181749 0.743273 -0.032572
v -0.233938 0.166020 -0.139025
v -0.204446 0.523198 -0.180455
v -0.184214 0.506142 -0.006495
v -0.224613 0.377166 -0.159217
v -0.217698 0.374989 -0.045209
vn -0.2217 -0.9691 0.1082
vn -0.7883 0.5086 0.3463
vn -0.1533 -0.7493 -0.6443
vn -0.7093 0.5661 -0.4200
vn 0.7388 -0.6080 0.2908
vn 0.4575 0.7224 0.5185
vn 0.8599 -0.2929 -0.4181
vn 0.5639 0.7822 -0.2648
vn -0.8344 -0.2767 0.4766
vn -0.8271 -0.0004 -0.5621
vn 0.9057 0.2354 -0.3526
vn 0.7443 0.0362 0.6669
vn -0.8901 0.0491 0.4532
vn -0.8105 0.0991 -0.5774
vn 0.8483 0.3002 -0.4363
vn 0.6821 0.2562 0.6849
vn 0.3083 -0.2904 -0.9059
vn 0.0002 0.6743 -0.7384
vn 0.2361 -0.8062 0.5425
vn -0.2652 0.5778 0.7719
vn -0.0814 -0.2365 0.9682
vn 0.1117 0.2464 -0.9627
vn -0.2115 0.1032 0.9719
vn 0.0673 0.2159 -0.9741
vn 0.2217 -0.9691 0.1082
vn 0.7883 0.5086 0.3463
vn 0.1533 -0.7493 -0.6443
vn 0.7093 0.5661 -0.4200
vn -0.7388 -0.6080 0.2908
vn -0.4575 0.7224 0.5185
vn -0.8599 -0.2929 -0.4181
vn -0.5639 0.7822 -0.2648
vn 0.8344 -0.2767 0.4766
vn 0.8271 -0.0004 -0.5621
vn -0.9057 0.2354 -0.3526
vn -0.7443 0.0362 0.6669
vn 0.8901 0.0491 0.4532
vn 0.8105 0.0991 -0.5774
vn -0.8483 0.3002 -0.4363
vn -0.6821 0.2562 0.6849
vn -0.3083 -0.2904 -0.9059
vn -0.0002 0.6743 -0.7384
vn -0.2361 -0.8062 0.5425
vn 0.2652 0.5778 0.7719
vn 0.0814 -0.2365 0.9682
vn -0.1117 0.2464 -0.9627
vn 0.2115 0.1032 0.9719
vn -0.0673 0.2159 -0.9741
vt 0.882793 0.528058
vt 0.911650 0.474424
vt 0.928814 0.476280
vt 0.918336 0.533449
vt 0.172445 0.718709
vt 0.165510 0.650091
vt 0.175206 0.639661
vt 0.190611 0.701919
vt 0.884225 0.057924
vt 0.875411 0.009550
vt 0.892015 0.005965
vt 0.919842 0.050556
vt 0.821496 0.744095
vt 0.797015 0.680788
vt 0.816492 0.677350
vt 0.852897 0.740586
vt 0.435812 0.881405
vt 0.410017 0.872368
vt 0.413698 0.861828
vt 0.440737 0.860572
vt 0.799683 0.665875
vt 0.817869 0.669655
vt 0.405630 0.774449
vt 0.457224 0.786054
vt 0.457224 0.870311
vt 0.875411 0.139640
vt 0.891718 0.098327
vt 0.940132 0.087622
vt 0.894384 0.136968
vt 0.210563 0.818469
vt 0.195286 0.753339
vt 0.223598 0.722565
vt 0.223598 0.802535
vt 0.910799 0.641003
vt 0.866652 0.569158
vt 0.916057 0.576123
vt 0.928814 0.641940
vt 0.829082 0.789944
vt 0.881720 0.785854
vt 0.150176 0.785910
vt 0.146344 0.734325
vt 0.778658 0.780164
vt 0.792852 0.740947
vt 0.195661 0.835172
vt 0.353945 0.781930
vt 0.780023 0.670333
vt 0.778658 0.677965
vt 0.455853 0.881182
vt 0.147875 0.661040
s 1
usemtl character
f 445/460/442 434/461/431 436/462/433 446/463/443
f 456/464/453 450/465/447 440/466/437 447/467/444
f 447/468/444 440/469/437 438/470/435 448/471/445
f 455/472/452 452/473/449 434/474/431 445/475/442
f 449/476/446 439/477/436 437/478/434 451/479/448
f 450/480/447 436/481/433 434/474/431 452/473/449
f 451/479/448 453/482/450 441/483/438 433/484/430
f 439/485/436 443/486/440 444/487/441 437/488/434
f 449/489/446 454/490/451 443/491/440 439/492/436
f 433/493/430 441/494/438 442/495/439 435/496/432
f 453/497/450 455/472/452 445/475/442 441/498/438
f 443/486/440 447/468/444 448/471/445 444/487/441
f 454/490/451 456/464/453 447/467/444 443/491/440
f 441/494/438 445/460/442 446/463/443 442/495/439
f 442/499/439 446/500/443 456/464/453 454/490/451
f 444/501/441 448/502/445 455/472/452 453/497/450
f 435/503/432 442/499/439 454/490/451 449/489/446
f 437/478/434 444/504/441 453/482/450 451/479/448
f 440/505/437 450/480/447 452/473/449 438/506/435
f 435/507/432 449/476/446 451/479/448 433/484/430
f 448/502/445 438/506/435 452/473/449 455/472/452
f 446/500/443 436/508/433 450/465/447 456/464/453
f 469/460/466 470/463/467 460/462/457 458/461/455
f 480/464/477 471/467/468 464/466/461 474/465/471
f 471/468/468 472/471/469 462/470/459 464/469/461
f 479/472/476 469/475/466 458/474/455 476/473/473
f 473/476/470 475/479/472 461/478/458 463/477/460
f 474/480/471 476/473/473 458/474/455 460/481/457
f 475/479/472 457/484/454 465/483/462 477/482/474
f 463/485/460 461/488/458 468/487/465 467/486/464
f 473/489/470 463/492/460 467/491/464 478/490/475
f 457/493/454 459/496/456 466/495/463 465/494/462
f 477/497/474 465/498/462 469/475/466 479/472/476
f 467/486/464 468/487/465 472/471/469 471/468/468
f 478/490/475 467/491/464 471/467/468 480/464/477
f 465/494/462 466/495/463 470/463/467 469/460/466
f 466/499/463 478/490/475 480/464/477 470/500/467
f 468/501/465 477/497/474 479/472/476 472/502/469
f 459/503/456 473/489/470 478/490/475 466/499/463
f 461/478/458 475/479/472 477/482/474 468/504/465
f 464/505/461 462/506/459 476/473/473 474/480/471
f 459/507/456 457/484/454 475/479/472 473/476/470
f 472/502/469 479/472/476 476/473/473 462/506/459
f 470/500/467 480/464/477 474/465/471 460/508/457
o Cube.008
v 0.179509 0.001582 -0.079644
v 0.179509 0.100279 -0.055620
v 0.179509 0.001582 -0.166329
v 0.179509 0.100279 -0.142306
v 0.266194 0.001582 -0.079644
v 0.266194 0.100279 -0.055620
v 0.266194 0.001582 -0.166329
v 0.266194 0.100279 -0.142306
v 0.181621 0.001582 0.147374
v 0.181227 0.049229 0.144397
v 0.309100 0.049229 0.127496
v 0.309493 0.001582 0.130473
v 0.188916 0.207408 -0.074037
v 0.188916 0.207408 -0.141907
v 0.256786 0.207408 -0.141907
v 0.256786 0.207408 -0.074037
v 0.297115 0.049229 0.036817
v 0.297508 0.001582 0.039794
v 0.169636 0.001582 0.056695
v 0.169242 0.049229 0.053718
v -0.179509 0.001582 -0.079644
v -0.179509 0.100279 -0.055620
v -0.179509 0.001582 -0.166329
v -0.179509 0.100279 -0.142306
v -0.266194 0.001582 -0.079644
v -0.266194 0.100279 -0.055620
v -0.266194 0.001582 -0.166329
v -0.266194 0.100279 -0.142306
v -0.181621 0.001582 0.147374
v -0.181227 0.049229 0.144397
v -0.309100 0.049229 0.127496
v -0.309493 0.001582 0.130473
v -0.188916 0.207408 -0.074037
v -0.188916 0.207408 -0.141907
v -0.256786 0.207408 -0.141907
v -0.256786 0.207408 -0.074037
v -0.297115 0.049229 0.036817
v -0.297508 0.001582 0.039794
v -0.169636 0.001582 0.056695
v -0.169242 0.049229 0.053718
vn -0.6997 -0.7140 -0.0237
vn -0.8213 0.3793 0.4262
vn -0.5658 -0.5094 -0.6483
vn -0.7412 0.1130 -0.6617
vn 0.6776 -0.7311 -0.0798
vn 0.8187 0.4209 0.3907
vn 0.5658 -0.5094 -0.6483
vn 0.7412 0.1130 -0.6617
vn -0.4910 -0.5605 0.6670
vn -0.5027 0.5935 0.6285
vn 0.6487 0.5935 0.4764
vn 0.6474 -0.5605 0.5165
vn -0.5570 0.6438 0.5247
vn -0.5494 0.6006 -0.5809
vn 0.5494 0.6006 -0.5809
vn 0.5570 0.6438 0.5247
vn 0.7753 0.6308 -0.0315
vn 0.7130 -0.6860 -0.1451
vn -0.7298 -0.6833 0.0218
vn -0.7725 0.6189 0.1421
vn 0.6997 -0.7140 -0.0237
vn 0.8213 0.3793 0.4262
vn -0.6776 -0.7311 -0.0798
vn -0.8187 0.4209 0.3907
vn 0.4910 -0.5605 0.6670
vn 0.5027 0.5935 0.6285
vn -0.6487 0.5935 0.4764
vn -0.6474 -0.5605 0.5165
vn -0.7753 0.6308 -0.0315
vn -0.7130 -0.6860 -0.1451
vn 0.7298 -0.6833 0.0218
vn 0.7725 0.6189 0.1421
vt 0.341927 0.086475
vt 0.250257 0.108661
vt 0.250343 0.028151
vt 0.342014 0.005965
vt 0.235529 0.705154
vt 0.235529 0.611455
vt 0.316045 0.611455
vt 0.316045 0.705154
vt 0.353945 0.005965
vt 0.445678 0.028018
vt 0.446072 0.108117
vt 0.354339 0.086064
vt 0.353945 0.199384
vt 0.398175 0.196526
vt 0.398229 0.281447
vt 0.353998 0.284305
vt 0.437515 0.585359
vt 0.357693 0.574809
vt 0.368243 0.494987
vt 0.448065 0.505537
vt 0.244267 0.512636
vt 0.307307 0.512636
vt 0.146344 0.847259
vt 0.190623 0.847103
vt 0.190623 0.966657
vt 0.146344 0.966813
vt 0.297782 0.210152
vt 0.342014 0.212983
vt 0.341654 0.297344
vt 0.297423 0.294514
vt 0.473750 0.381194
vt 0.353945 0.381194
vt 0.353945 0.296236
vt 0.473750 0.296236
vt 0.005965 0.541703
vt 0.125767 0.541553
vt 0.125767 0.625506
vt 0.005965 0.625656
vt 0.404833 0.956488
vt 0.404833 0.893452
vt 0.467130 0.893336
vt 0.467130 0.956371
vt 0.545414 0.027339
vt 0.545722 0.090052
vt 0.150588 0.091531
vt 0.150656 0.028496
vt 0.637996 0.929238
vt 0.557653 0.929238
vt 0.566021 0.828416
vt 0.628925 0.828416
vt 0.022799 0.446579
vt 0.102618 0.436053
s 1
usemtl character
f 481/509/478 482/510/479 484/511/481 483/512/480
f 483/513/480 484/514/481 488/515/485 487/516/484
f 487/517/484 488/518/485 486/519/483 485/520/482
f 498/521/495 497/522/494 491/523/488 492/524/489
f 483/525/480 487/526/484 485/527/482 481/528/478
f 488/515/485 484/514/481 494/529/491 495/530/492
f 492/531/489 491/532/488 490/533/487 489/534/486
f 500/535/497 499/536/496 489/537/486 490/538/487
f 499/539/496 498/540/495 492/541/489 489/542/486
f 497/543/494 500/544/497 490/545/487 491/546/488
f 495/547/492 494/548/491 493/549/490 496/550/493
f 486/519/483 488/518/485 495/551/492 496/552/493
f 484/511/481 482/510/479 493/553/490 494/554/491
f 482/555/479 486/556/483 496/557/493 493/558/490
f 486/559/483 482/560/479 500/544/497 497/543/494
f 481/528/478 485/527/482 498/540/495 499/539/496
f 482/510/479 481/509/478 499/536/496 500/535/497
f 485/520/482 486/519/483 497/522/494 498/521/495
f 501/509/498 503/512/484 504/511/485 502/510/499
f 503/513/484 507/516/480 508/515/481 504/514/485
f 507/517/480 505/520/500 506/519/501 508/518/481
f 518/521/507 512/524/505 511/523/504 517/522/506
f 503/525/484 501/528/498 505/527/500 507/526/480
f 508/515/481 515/530/491 514/529/492 504/514/485
f 512/531/505 509/534/502 510/533/503 511/532/504
f 520/535/509 510/538/503 509/537/502 519/536/508
f 519/539/508 509/542/502 512/541/505 518/540/507
f 517/543/506 511/546/504 510/545/503 520/544/509
f 515/547/491 516/550/490 513/549/493 514/548/492
f 506/519/501 516/552/490 515/551/491 508/518/481
f 504/511/485 514/554/492 513/553/493 502/510/499
f 502/555/499 513/558/493 516/557/490 506/556/501
f 506/559/501 517/543/506 520/544/509 502/560/499
f 501/528/498 519/539/508 518/540/507 505/527/500
f 502/510/499 520/535/509 519/536/508 501/509/498
f 505/520/500 518/521/507 517/522/506 506/519/501
